# xmcd
#
# Track frame offsets: 
#        150
#        18418
#        39033
#        55425
#        68773
#        88120
#        103093
#        120088
#        135708
#        143998
#        159693
#        173875
#
# Disc length: 2543 seconds
#
# Revision: 4
# Processed by: cddbd v1.5.2PL0 Copyright (c) Steve Scherf et al.
# Submitted via: ExactAudioCopy v0.99pb4
#
DISCID=9d09ed0c
DTITLE=Steve Wariner - No More Mr. Nice Guy
DYEAR=1996
DGENRE=Country
TTITLE0=No More Mr. Nice Guy
TTITLE1=Big Hero, Little Hero
TTITLE2=Practice Your Scales Somewhere Else
TTITLE3=The Theme
TTITLE4=Forever Loving You
TTITLE5=Next March
TTITLE6=If You Can't Say Something Good
TTITLE7=Hap Towne Breakdowne
TTITLE8=For Chester B.
TTITLE9=The Brickyard Boogie
TTITLE10=Don't Call Me Ray
TTITLE11=Guitar Talk
EXTD=
EXTT0=
EXTT1=
EXTT2=
EXTT3=
EXTT4=
EXTT5=
EXTT6=
EXTT7=
EXTT8=
EXTT9=
EXTT10=
EXTT11=
PLAYORDER=
